<svg xmlns="http://www.w3.org/2000/svg" width="125.197" height="131.727" viewBox="0 0 125.197 131.727">
  <g id="Group_9" data-name="Group 9" transform="translate(-10211.499 -3884.267)">
    <g id="Group_8" data-name="Group 8" transform="translate(10212.499 3885)">
      <g id="Group_6" data-name="Group 6" transform="translate(0 0)">
        <g id="Group_4" data-name="Group 4" transform="translate(0)">
          <path id="home" d="M77.981,87.448H55.356a2.706,2.706,0,0,1-2.706-2.705V61.861h-13.3V84.742a2.706,2.706,0,0,1-2.706,2.705H14.021a2.705,2.705,0,0,1-2.705-2.705V47.056H4.722a4.718,4.718,0,0,1-3.178-8.2L42.824,1.238a4.7,4.7,0,0,1,6.355,0l9.386,8.553v-1.5a2.706,2.706,0,0,1,2.706-2.705H79.981a2.706,2.706,0,0,1,2.705,2.705V31.769l7.772,7.082a4.718,4.718,0,0,1-3.178,8.206H80.686c0,39.18-1.211,40.391-2.705,40.391Zm8.832-44.6h0Zm0,0" transform="translate(0 0)" fill="#505050" stroke="#e4e4e4" stroke-width="1"/>
          <path id="home-2" data-name="home" d="M77.981,87.448H55.356a2.706,2.706,0,0,1-2.706-2.705V61.861h-13.3V84.742a2.706,2.706,0,0,1-2.706,2.705H14.021a2.705,2.705,0,0,1-2.705-2.705V47.056H4.722a4.718,4.718,0,0,1-3.178-8.2L42.824,1.238a4.7,4.7,0,0,1,6.355,0l9.386,8.553v-1.5a2.706,2.706,0,0,1,2.706-2.705H79.981a2.706,2.706,0,0,1,2.705,2.705V31.769l7.772,7.082a4.718,4.718,0,0,1-3.178,8.206H80.686c0,39.18-1.211,40.391-2.705,40.391Zm8.832-44.6h0Zm0,0" transform="translate(31.627 12.22)" fill="#0092d2" stroke="#707070" stroke-width="1"/>
          <path id="home-3" data-name="home" d="M77.981,87.448H55.356a2.706,2.706,0,0,1-2.706-2.705V61.861h-13.3V84.742a2.706,2.706,0,0,1-2.706,2.705H14.021a2.705,2.705,0,0,1-2.705-2.705V47.056H4.722a4.718,4.718,0,0,1-3.178-8.2L42.824,1.238a4.7,4.7,0,0,1,6.355,0l9.386,8.553v-1.5a2.706,2.706,0,0,1,2.706-2.705H79.981a2.706,2.706,0,0,1,2.705,2.705V31.769l7.772,7.082a4.718,4.718,0,0,1-3.178,8.206H80.686c0,39.18-1.211,40.391-2.705,40.391Zm8.832-44.6h0Zm0,0" transform="translate(15.634 20.665)" fill="#fafafa" stroke="#707070" stroke-width="1"/>
        </g>
        <text id="BUD_WALCZAK" data-name="BUD WALCZAK" transform="translate(122 127.994)" fill="#fafafa" font-size="15" font-family="Lato-Regular, Lato" letter-spacing="0.1em"><tspan x="-122.16" y="0">BUD WALCZAK</tspan></text>
      </g>
    </g>
  </g>
</svg>
