<svg xmlns="http://www.w3.org/2000/svg" width="121.92" height="127.724" viewBox="0 0 121.92 127.724">
  <g id="Group_6" data-name="Group 6" transform="translate(1 0.727)">
    <g id="Group_4" data-name="Group 4" transform="translate(0 0)">
      <path id="home" d="M75.914,85.13H53.889A2.634,2.634,0,0,1,51.255,82.5V60.222H38.31V82.5a2.634,2.634,0,0,1-2.634,2.634H13.649A2.634,2.634,0,0,1,11.016,82.5V45.809H4.6A4.593,4.593,0,0,1,1.5,37.822L41.689,1.2a4.572,4.572,0,0,1,6.187,0l9.138,8.326V8.066a2.634,2.634,0,0,1,2.634-2.634H77.861a2.634,2.634,0,0,1,2.634,2.634V30.927l7.567,6.894a4.593,4.593,0,0,1-3.093,7.988h-6.42c0,38.142-1.179,39.321-2.634,39.321Zm8.6-43.415h0Zm0,0" transform="translate(0 0)" fill="#505050" stroke="#e4e4e4" stroke-width="1"/>
      <path id="home-2" data-name="home" d="M75.914,85.13H53.889A2.634,2.634,0,0,1,51.255,82.5V60.222H38.31V82.5a2.634,2.634,0,0,1-2.634,2.634H13.649A2.634,2.634,0,0,1,11.016,82.5V45.809H4.6A4.593,4.593,0,0,1,1.5,37.822L41.689,1.2a4.572,4.572,0,0,1,6.187,0l9.138,8.326V8.066a2.634,2.634,0,0,1,2.634-2.634H77.861a2.634,2.634,0,0,1,2.634,2.634V30.927l7.567,6.894a4.593,4.593,0,0,1-3.093,7.988h-6.42c0,38.142-1.179,39.321-2.634,39.321Zm8.6-43.415h0Zm0,0" transform="translate(30.789 11.896)" fill="#0092d2" stroke="#707070" stroke-width="1"/>
      <path id="home-3" data-name="home" d="M75.914,85.13H53.889A2.634,2.634,0,0,1,51.255,82.5V60.222H38.31V82.5a2.634,2.634,0,0,1-2.634,2.634H13.649A2.634,2.634,0,0,1,11.016,82.5V45.809H4.6A4.593,4.593,0,0,1,1.5,37.822L41.689,1.2a4.572,4.572,0,0,1,6.187,0l9.138,8.326V8.066a2.634,2.634,0,0,1,2.634-2.634H77.861a2.634,2.634,0,0,1,2.634,2.634V30.927l7.567,6.894a4.593,4.593,0,0,1-3.093,7.988h-6.42c0,38.142-1.179,39.321-2.634,39.321Zm8.6-43.415h0Zm0,0" transform="translate(15.22 20.118)" fill="#fafafa" stroke="#707070" stroke-width="1"/>
    </g>
    <text id="BUD_WALCZAK" data-name="BUD WALCZAK" transform="translate(114 123.997)" fill="#505050" font-size="14" font-family="Lato-Regular, Lato" letter-spacing="0.1em"><tspan x="-114.016" y="0">BUD WALCZAK</tspan></text>
  </g>
</svg>
